<svg width="512" height="512" viewBox="0 0 512 512" fill="none" xmlns="http://www.w3.org/2000/svg">
  <rect width="512" height="512" rx="128" fill="#1a1a1a"/>
  <path d="M256 120C256 120 180 200 180 280C180 340 220 380 256 380C292 380 332 340 332 280C332 200 256 120 256 120Z" stroke="#00f3ff" stroke-width="20" stroke-linecap="round" stroke-linejoin="round"/>
  <path d="M256 300C256 300 220 260 220 220C220 180 240 160 256 160C272 160 292 180 292 220C292 260 256 300 256 300Z" fill="#bc13fe" opacity="0.8"/>
  <circle cx="256" cy="256" r="180" stroke="#00f3ff" stroke-width="8" stroke-dasharray="10 20"/>
</svg>
